<svg width="1297" height="129" viewBox="0 0 1297 129" fill="none" xmlns="http://www.w3.org/2000/svg">
<path d="M14.8914 26.8C9.95807 26.8 6.35807 25.8 4.09141 23.8C1.82474 21.8 0.691407 18.4667 0.691407 13.8C0.691407 8.99999 1.75807 5.66666 3.89141 3.79999C6.15807 1.79999 9.82474 0.799994 14.8914 0.799994C19.9581 0.799994 23.6247 1.79999 25.8914 3.79999C28.1581 5.66666 29.2914 8.99999 29.2914 13.8C29.2914 18.3333 28.1581 21.6667 25.8914 23.8C23.6247 25.8 19.9581 26.8 14.8914 26.8ZM2.69141 129V39.4H27.0914V129H2.69141ZM65.2305 129V27.4L63.2305 11.4H156.03C166.83 11.4 175.097 12.7333 180.83 15.4C186.697 18.0667 190.764 22.0667 193.03 27.4C195.297 32.6 196.43 39.1333 196.43 47V93.2C196.43 101.2 195.297 107.867 193.03 113.2C190.897 118.4 186.897 122.333 181.03 125C175.297 127.667 166.964 129 156.03 129H65.2305ZM91.6305 109.8H154.43C164.697 109.8 169.897 105.067 170.03 95.6V44.6C170.03 40.7333 168.897 37.4667 166.63 34.8C164.364 32 160.297 30.6 154.43 30.6H91.6305V109.8ZM250.763 129C244.097 129 238.963 128.133 235.363 126.4C231.763 124.667 229.163 122.467 227.563 119.8C226.097 117.133 225.163 114.333 224.763 111.4C224.497 108.467 224.363 105.8 224.363 103.4V65C224.363 63 224.497 60.6 224.763 57.8C225.163 54.8667 226.097 52 227.563 49.2C229.163 46.4 231.763 44.0667 235.363 42.2C239.097 40.3333 244.23 39.4 250.763 39.4H293.763C302.563 39.4 309.43 40.2667 314.363 42C319.43 43.6 322.963 46.2667 324.963 50C327.097 53.7333 328.163 58.7333 328.163 65V94.6H293.163C281.163 94.6 271.363 94.3333 263.763 93.8C256.297 93.2667 251.297 92.9333 248.763 92.8V103.8C248.63 109.133 251.83 111.8 258.363 111.8H268.563C275.763 111.8 282.763 111.733 289.563 111.6C296.497 111.333 302.83 111.067 308.563 110.8C314.297 110.4 318.897 110.067 322.363 109.8L330.363 122.8C330.363 126.933 317.23 129 290.963 129H250.763ZM248.763 77.4H303.763V64.6C303.763 61.9333 303.43 60.0667 302.763 59C302.23 57.9333 300.497 57.2667 297.563 57C294.63 56.7333 289.63 56.6 282.563 56.6H258.363C251.963 56.6 248.763 59.2667 248.763 64.6V77.4ZM362.387 129V27.4L360.387 11.4H485.187V30.6H388.787V59.8H463.587V79.6H388.787V129H362.387ZM521.313 26.8C516.38 26.8 512.78 25.8 510.513 23.8C508.247 21.8 507.113 18.4667 507.113 13.8C507.113 8.99999 508.18 5.66666 510.313 3.79999C512.58 1.79999 516.247 0.799994 521.313 0.799994C526.38 0.799994 530.047 1.79999 532.313 3.79999C534.58 5.66666 535.713 8.99999 535.713 13.8C535.713 18.3333 534.58 21.6667 532.313 23.8C530.047 25.8 526.38 26.8 521.313 26.8ZM509.113 129V39.4H533.513V129H509.113ZM569.652 85V61.8H633.652V85H569.652ZM655.746 129L714.346 11.4H753.746L812.146 129H781.346L769.546 103.6H697.946L684.946 129H655.746ZM705.146 84H762.146L734.746 29.4H732.746L705.146 84ZM834.191 129V11.4H860.591V129H834.191Z" fill="black"/>
<path d="M932.535 129L991.135 11.4H1030.54L1088.94 129H1058.14L1046.34 103.6H974.735L961.735 129H932.535ZM981.935 84H1038.94L1011.54 29.4H1009.54L981.935 84ZM1112.98 129V27.4L1110.98 11.2H1199.58C1208.11 11.2 1214.78 12.3333 1219.58 14.6C1224.51 16.8667 1228.11 19.8667 1230.38 23.6C1232.78 27.2 1234.31 31.0667 1234.98 35.2C1235.65 39.3333 1235.98 43.2667 1235.98 47V58.8C1235.98 61.8667 1235.51 65.3333 1234.58 69.2C1233.65 72.9333 1231.91 76.6 1229.38 80.2C1226.85 83.6667 1223.18 86.6 1218.38 89C1213.58 91.2667 1207.31 92.4 1199.58 92.4H1179.18C1170.78 92.4 1162.91 92.2 1155.58 91.8C1148.38 91.4 1142.98 91.0667 1139.38 90.8V129H1112.98ZM1139.38 73.2H1193.78C1199.78 73.2 1203.91 71.7333 1206.18 68.8C1208.45 65.8667 1209.58 62.3333 1209.58 58.2V45.6C1209.58 41.3333 1208.45 37.7333 1206.18 34.8C1203.91 31.8667 1199.85 30.4 1193.98 30.4H1139.38V73.2ZM1269.91 129V11.4H1296.31V129H1269.91Z" fill="#913D88"/>
</svg>
